<svg id="Layer_1" data-name="Layer 1" xmlns="http://www.w3.org/2000/svg" viewBox="0 0 148.52 85.58"><defs><style>.cls-1{fill:#444;}.cls-2{fill:none;stroke:#444;stroke-linecap:round;stroke-linejoin:round;stroke-width:12px;}.cls-3{fill:#ffce00;}.cls-4{fill:#1c1c1c;}.cls-5{fill:#e24b4b;}.cls-6{fill:#fff;}</style></defs><path class="cls-1" d="M58.82,34.41h85A2.17,2.17,0,0,1,146,36.58v18a30.82,30.82,0,0,1-30.82,30.82h-85A2.17,2.17,0,0,1,28,83.24v-18A30.82,30.82,0,0,1,58.82,34.41Z"/><path class="cls-1" d="M127.5,6.41h0A18.5,18.5,0,0,1,146,24.91v29.5a0,0,0,0,1,0,0H109a0,0,0,0,1,0,0V24.91A18.5,18.5,0,0,1,127.5,6.41Z"/><path class="cls-2" d="M85,159c-9,0-27,3.1-27-17,0-9,15-41-8-45" transform="translate(-44 -79.59)"/><path class="cls-1" d="M153,82v21.69l15.67-13.41L156.9,80.16A2.37,2.37,0,0,0,153,82Z" transform="translate(-44 -79.59)"/><path class="cls-1" d="M190,82.31V104L174.33,90.58,186.1,80.51A2.37,2.37,0,0,1,190,82.31Z" transform="translate(-44 -79.59)"/><circle class="cls-3" cx="120" cy="23.41" r="6"/><circle class="cls-4" cx="120" cy="23.41" r="4"/><circle class="cls-3" cx="135" cy="23.41" r="6"/><circle class="cls-4" cx="135" cy="23.41" r="4"/><circle class="cls-5" cx="127.15" cy="32.41" r="4"/><path class="cls-5" d="M180.87,113.42a3.35,3.35,0,0,0-2.57,1.28,9.31,9.31,0,0,1-14.52,0,3.35,3.35,0,0,0-2.57-1.28h0a3.22,3.22,0,0,0-2.5,5.24,15.74,15.74,0,0,0,24.65,0,3.22,3.22,0,0,0-2.49-5.24Z" transform="translate(-44 -79.59)"/><path class="cls-6" d="M171,122.68a13.75,13.75,0,0,1-10.82-5.23,1.25,1.25,0,0,1-.16-1.38,1.28,1.28,0,0,1,2.22-.16,11.24,11.24,0,0,0,17.52,0,1.29,1.29,0,1,1,2.06,1.54A13.75,13.75,0,0,1,171,122.68Z" transform="translate(-44 -79.59)"/><path class="cls-5" d="M170,85.7a2.58,2.58,0,0,1-2.59,2.59,2.32,2.32,0,0,1-.46,0L154.88,99.14a.12.12,0,0,1,0,.08,2.13,2.13,0,1,1-3.61-1.52,3.38,3.38,0,0,1-.64-2,3.83,3.83,0,0,1,.24-1.28,3.15,3.15,0,0,1-.57-1.82,3.22,3.22,0,0,1,2.41-3.1,3.13,3.13,0,0,1-.21-1.11,3.19,3.19,0,0,1,3.18-3.18,2.73,2.73,0,0,1,.81.11A3.7,3.7,0,0,1,160.2,82a3.67,3.67,0,0,1,2.43.93,3.64,3.64,0,0,1,3.5.56,2.39,2.39,0,0,1,1.31-.37A2.57,2.57,0,0,1,170,85.7Z" transform="translate(-44 -79.59)"/><path class="cls-5" d="M175.4,83.22a2.4,2.4,0,0,1,1.31.38,3.64,3.64,0,0,1,3.5-.56,3.69,3.69,0,0,1,6.12,2.39,3.1,3.1,0,0,1,.81-.1,3.16,3.16,0,0,1,3,4.29,3.22,3.22,0,0,1,2.41,3.1,3.17,3.17,0,0,1-.57,1.82,3.6,3.6,0,0,1,.24,1.28,3.4,3.4,0,0,1-.64,2,2.12,2.12,0,1,1-3.61,1.52.12.12,0,0,1,0-.08L175.87,88.36a3.42,3.42,0,0,1-.46,0,2.59,2.59,0,0,1,0-5.18Z" transform="translate(-44 -79.59)"/></svg>