<svg id="Layer_1" data-name="Layer 1" xmlns="http://www.w3.org/2000/svg" viewBox="0 0 1832.44 1054.19"><defs><style>.cls-1{opacity:0.1;}.cls-2{fill:#444;}.cls-12,.cls-3,.cls-7{fill:none;}.cls-3{stroke:#444;stroke-linecap:round;stroke-linejoin:round;stroke-width:12px;}.cls-4{fill:#ffce00;}.cls-5{fill:#1c1c1c;}.cls-6{fill:#ff625a;}.cls-7{stroke:#282828;stroke-width:2px;}.cls-10,.cls-12,.cls-7{stroke-miterlimit:10;}.cls-8{fill:#e24b4b;}.cls-10,.cls-9{fill:#fff;}.cls-10,.cls-12{stroke:#000;stroke-width:0.25px;}.cls-11{fill:#fff800;}</style></defs><g class="cls-1"><path class="cls-2" d="M451.43,416.8H577.86A2.17,2.17,0,0,1,580,419v35.91a30.82,30.82,0,0,1-30.82,30.82H422.78a2.17,2.17,0,0,1-2.17-2.17V447.61A30.82,30.82,0,0,1,451.43,416.8Z" transform="translate(246.21 -201.9) rotate(28.15)"/><path class="cls-2" d="M560.87,409.49h13a18.5,18.5,0,0,1,18.5,18.5v46.34a0,0,0,0,1,0,0h-50a0,0,0,0,1,0,0V428A18.5,18.5,0,0,1,560.87,409.49Z" transform="translate(249.74 -234.63) rotate(28.15)"/><path class="cls-3" d="M433.1,445.16c-10.72-5.74-34.14-13.52-21.33-37.46,5.74-10.72,44-39.28,19.15-58.7" transform="translate(-25.82 -19.25)"/><path class="cls-2" d="M563.2,396.72l-13.83,25.84,27.21-6L569,397.07A3.19,3.19,0,0,0,563.2,396.72Z" transform="translate(-25.82 -19.25)"/><path class="cls-2" d="M607.05,420.71l-13.83,25.85-10.11-26,20.43-4.5A3.19,3.19,0,0,1,607.05,420.71Z" transform="translate(-25.82 -19.25)"/><circle class="cls-4" cx="537.07" cy="409.55" r="8.11"/><circle class="cls-5" cx="537.07" cy="409.55" r="5.4"/><circle class="cls-4" cx="554.93" cy="419.11" r="8.11"/><circle class="cls-5" cx="554.93" cy="419.11" r="5.4"/><path class="cls-6" d="M564.71,449.69l-2.34-1.25a1.39,1.39,0,0,1-.24-2.29l2.73-2.3a1.39,1.39,0,0,1,2.28,1.22l-.4,3.55A1.39,1.39,0,0,1,564.71,449.69Z" transform="translate(-25.82 -19.25)"/><path class="cls-7" d="M563.66,449.12c-1.28,2.39-3.6,5.9-2,8.11,1.75,2.46,4.85-.47,5.49-1.66" transform="translate(-25.82 -19.25)"/><path class="cls-7" d="M563.59,449.09c-1.28,2.38-2.91,6.26-5.61,6.19-3-.09-2.3-4.3-1.66-5.49" transform="translate(-25.82 -19.25)"/></g><g class="cls-1"><path class="cls-2" d="M947.46,595.51H1069a2.17,2.17,0,0,1,2.17,2.17v33.8a30.82,30.82,0,0,1-30.82,30.82H918.81a2.17,2.17,0,0,1-2.17-2.17v-33.8a30.82,30.82,0,0,1,30.82-30.82Z" transform="translate(-200.81 479.08) rotate(-25.95)"/><path class="cls-2" d="M1019,539.52h11.45a18.5,18.5,0,0,1,18.5,18.5v44.36a0,0,0,0,1,0,0h-48.45a0,0,0,0,1,0,0V558A18.5,18.5,0,0,1,1019,539.52Z" transform="translate(-172.35 486.71) rotate(-25.95)"/><path class="cls-3" d="M950.91,678.22c-10.59,5.16-30,19.12-41.53-4.55-5.16-10.59-5.83-56.87-35.21-48.4" transform="translate(-25.82 -19.25)"/><path class="cls-2" d="M986.84,548.53l12.43,25.55L1010,549.3l-19.63-5.12A3.09,3.09,0,0,0,986.84,548.53Z" transform="translate(-25.82 -19.25)"/><path class="cls-2" d="M1030.61,527.74,1043,553.29l-26.14-6.82,8.08-18.61A3.1,3.1,0,0,1,1030.61,527.74Z" transform="translate(-25.82 -19.25)"/><circle class="cls-4" cx="986.03" cy="547.76" r="7.86"/><circle class="cls-5" cx="986.03" cy="547.76" r="5.24"/><circle class="cls-4" cx="1003.69" cy="539.17" r="7.86"/><circle class="cls-5" cx="1003.69" cy="539.17" r="5.24"/><path class="cls-6" d="M1029.29,577.46l-2.32,1.12a1.34,1.34,0,0,1-1.93-1.11l-.25-3.45a1.35,1.35,0,0,1,2.25-1.1l2.56,2.33A1.35,1.35,0,0,1,1029.29,577.46Z" transform="translate(-25.82 -19.25)"/><path class="cls-7" d="M1028.25,578c1.14,2.36,2.58,6.18,5.2,6.21,2.93,0,2.39-4.08,1.81-5.25" transform="translate(-25.82 -19.25)"/><path class="cls-7" d="M1028.18,578c1.14,2.36,3.26,5.85,1.67,7.93-1.78,2.32-4.68-.64-5.25-1.81" transform="translate(-25.82 -19.25)"/></g><g class="cls-1"><path class="cls-2" d="M1324.36,292h159.42a2.17,2.17,0,0,1,2.17,2.17v50.17a30.82,30.82,0,0,1-30.82,30.82H1295.71a2.17,2.17,0,0,1-2.17-2.17V322.85A30.82,30.82,0,0,1,1324.36,292Z" transform="translate(1197.43 -1105.13) rotate(69.81)"/><path class="cls-2" d="M1446,339.85h23.33a18.5,18.5,0,0,1,18.5,18.5v59.77a0,0,0,0,1,0,0h-60.33a0,0,0,0,1,0,0V358.35A18.5,18.5,0,0,1,1446,339.85Z" transform="translate(1284.52 -1139.17) rotate(69.81)"/><path class="cls-3" d="M1334,274.18c-5.07-13.77-19.94-39.58,10.82-50.89,13.77-5.06,71.19-.11,64.37-37.56" transform="translate(-25.82 -19.25)"/><path class="cls-2" d="M1490.19,334.9,1457,347.1l29.35,16.43,8.8-23.67A3.85,3.85,0,0,0,1490.19,334.9Z" transform="translate(-25.82 -19.25)"/><path class="cls-2" d="M1510.47,391.72l-33.2,12.2L1489,372.4l22,12.33A3.86,3.86,0,0,1,1510.47,391.72Z" transform="translate(-25.82 -19.25)"/><circle class="cls-4" cx="1438.35" cy="344.33" r="9.78"/><circle class="cls-5" cx="1438.35" cy="344.33" r="6.52"/><circle class="cls-4" cx="1446.79" cy="367.28" r="9.78"/><circle class="cls-5" cx="1446.79" cy="367.28" r="6.52"/><path class="cls-6" d="M1449.05,383.87l-1.1-3a1.67,1.67,0,0,1,1.62-2.25l4.3.12a1.68,1.68,0,0,1,1.08,2.92l-3.2,2.88A1.68,1.68,0,0,1,1449.05,383.87Z" transform="translate(-25.82 -19.25)"/><path class="cls-7" d="M1448.56,382.52c-3.07,1.12-8,2.43-8.34,5.67-.41,3.62,4.75,3.47,6.28,2.9" transform="translate(-25.82 -19.25)"/><path class="cls-7" d="M1448.52,382.43c-3.06,1.12-7.65,3.31-10,1.08-2.66-2.5,1.37-5.72,2.9-6.28" transform="translate(-25.82 -19.25)"/></g><g class="cls-1"><path class="cls-2" d="M678.19,891.53H826.87A2.17,2.17,0,0,1,829,893.7v45.53A30.82,30.82,0,0,1,798.22,970H649.54a2.17,2.17,0,0,1-2.17-2.17V922.35A30.82,30.82,0,0,1,678.19,891.53Z" transform="translate(507.96 2081.81) rotate(-131.67)"/><path class="cls-2" d="M652.85,877.47h20a18.5,18.5,0,0,1,18.5,18.5v55.4a0,0,0,0,1,0,0h-57a0,0,0,0,1,0,0V896A18.5,18.5,0,0,1,652.85,877.47Z" transform="translate(394.7 1998.25) rotate(-131.67)"/><path class="cls-3" d="M807.71,963.72c9.22,10.35,31.2,27.88,8.09,48.45-10.35,9.21-62.5,24.72-43.55,55.26" transform="translate(-25.82 -19.25)"/><path class="cls-2" d="M649.52,964.39l24.94-22.21L643,937.9l.46,23.84A3.64,3.64,0,0,0,649.52,964.39Z" transform="translate(-25.82 -19.25)"/><path class="cls-2" d="M612.05,921.49,637,899.28,637.6,931,614,927.81A3.63,3.63,0,0,1,612.05,921.49Z" transform="translate(-25.82 -19.25)"/><circle class="cls-4" cx="636.63" cy="910.96" r="9.24"/><circle class="cls-5" cx="636.63" cy="910.96" r="6.16"/><circle class="cls-4" cx="621.28" cy="893.71" r="9.24"/><circle class="cls-5" cx="621.28" cy="893.71" r="6.16"/><path class="cls-6" d="M668.72,907.14l2,2.26a1.58,1.58,0,0,1-.64,2.54l-3.83,1.38a1.58,1.58,0,0,1-2-2.19l1.81-3.64A1.59,1.59,0,0,1,668.72,907.14Z" transform="translate(-25.82 -19.25)"/><path class="cls-7" d="M669.62,908.16c2.3-2,6.17-4.9,5.37-7.87-.9-3.32-5.37-1.4-6.52-.38" transform="translate(-25.82 -19.25)"/><path class="cls-7" d="M669.68,908.22c2.3-2,5.58-5.55,8.44-4.41,3.2,1.27.77,5.49-.38,6.52" transform="translate(-25.82 -19.25)"/></g><g class="cls-1"><path class="cls-2" d="M104.43,550.27h96.28a2.17,2.17,0,0,1,2.17,2.17v22.89a30.82,30.82,0,0,1-30.82,30.82H75.78A2.17,2.17,0,0,1,73.61,604V581.09a30.82,30.82,0,0,1,30.82-30.82Z" transform="translate(699.8 650.73) rotate(112.33)"/><path class="cls-2" d="M149.52,605.23h3.53a18.5,18.5,0,0,1,18.5,18.5v34.08a0,0,0,0,1,0,0H131a0,0,0,0,1,0,0V623.73A18.5,18.5,0,0,1,149.52,605.23Z" transform="translate(767.12 712.24) rotate(112.33)"/><path class="cls-3" d="M137.63,523.48c3.74-9.12,8.09-28.65,28.46-20.29,9.12,3.75,35.31,32.26,48.93,10.62" transform="translate(-25.82 -19.25)"/><path class="cls-2" d="M187.4,624.45l-22-9,7.07,21.46,15.11-7.73A2.59,2.59,0,0,0,187.4,624.45Z" transform="translate(-25.82 -19.25)"/><path class="cls-2" d="M171.65,661.8l-22-9,20.11-10.29,5.32,16.11A2.6,2.6,0,0,1,171.65,661.8Z" transform="translate(-25.82 -19.25)"/><circle class="cls-4" cx="135.68" cy="607.59" r="6.57"/><circle class="cls-5" cx="135.68" cy="607.59" r="4.38"/><circle class="cls-4" cx="129.44" cy="622.79" r="6.57"/><circle class="cls-5" cx="129.44" cy="622.79" r="4.38"/><path class="cls-6" d="M144.8,630l.81-2a1.13,1.13,0,0,1,1.83-.39l2.08,2a1.12,1.12,0,0,1-.8,1.93l-2.89,0A1.13,1.13,0,0,1,144.8,630Z" transform="translate(-25.82 -19.25)"/><path class="cls-7" d="M145.16,629.13c-2-.83-5-2.42-6.7-1-1.85,1.62.78,3.88,1.79,4.29" transform="translate(-25.82 -19.25)"/><path class="cls-7" d="M145.19,629.07c-2-.83-5.3-1.83-5.46-4-.18-2.44,3.28-2.2,4.29-1.79" transform="translate(-25.82 -19.25)"/></g><g class="cls-1"><path class="cls-2" d="M111.15,205H276.31a2.17,2.17,0,0,1,2.17,2.17v52.66a30.82,30.82,0,0,1-30.82,30.82H82.5a2.17,2.17,0,0,1-2.17-2.17V235.8A30.82,30.82,0,0,1,111.15,205Z" transform="translate(-71.94 21.84) rotate(-11.59)"/><path class="cls-2" d="M223.51,145.31h25.13a18.5,18.5,0,0,1,18.5,18.5v62.1a0,0,0,0,1,0,0H205a0,0,0,0,1,0,0v-62.1A18.5,18.5,0,0,1,223.51,145.31Z" transform="translate(-58.3 31.96) rotate(-11.59)"/><path class="cls-3" d="M110.31,295.4c-14.8,3-43.37,14.21-50.15-18.86-3-14.8,10.85-72.5-28.34-71.33" transform="translate(-25.82 -19.25)"/><path class="cls-2" d="M196.18,145.73l7.32,35.68,21.25-27.35L202,141.45A4,4,0,0,0,196.18,145.73Z" transform="translate(-25.82 -19.25)"/><path class="cls-2" d="M257.17,133.82l7.31,35.68-30.29-16.78,15.95-20.54A4,4,0,0,1,257.17,133.82Z" transform="translate(-25.82 -19.25)"/><circle class="cls-4" cx="195.56" cy="157.38" r="10.08"/><circle class="cls-5" cx="195.56" cy="157.38" r="6.72"/><circle class="cls-4" cx="220.23" cy="152.32" r="10.08"/><circle class="cls-5" cx="220.23" cy="152.32" r="6.72"/><path class="cls-6" d="M239.71,195.15l-3.23.67a1.73,1.73,0,0,1-2-2l.79-4.37a1.73,1.73,0,0,1,3.14-.64l2.44,3.7A1.73,1.73,0,0,1,239.71,195.15Z" transform="translate(-25.82 -19.25)"/><path class="cls-7" d="M238.26,195.45c.68,3.29,1.25,8.5,4.5,9.36,3.62,1,4.26-4.3,3.92-5.94" transform="translate(-25.82 -19.25)"/><path class="cls-7" d="M238.17,195.47c.67,3.29,2.19,8.3-.45,10.38-2.95,2.32-5.61-2.28-5.94-3.93" transform="translate(-25.82 -19.25)"/></g><g class="cls-1"><path class="cls-2" d="M1000.53,194.87h157.15a2.17,2.17,0,0,1,2.17,2.17v49.19A30.82,30.82,0,0,1,1129,277H971.88a2.17,2.17,0,0,1-2.17-2.17V225.69A30.82,30.82,0,0,1,1000.53,194.87Z" transform="translate(397.33 -665.18) rotate(41.47)"/><path class="cls-2" d="M1133.84,204.88h22.62a18.5,18.5,0,0,1,18.5,18.5v58.84a0,0,0,0,1,0,0h-59.62a0,0,0,0,1,0,0V223.38A18.5,18.5,0,0,1,1133.84,204.88Z" transform="translate(422.5 -716.5) rotate(41.47)"/><path class="cls-3" d="M988.43,210.42c-10.87-9.61-35.91-25.07-14.46-49.34,9.6-10.86,61.86-33.49,38.35-62.86" transform="translate(-25.82 -19.25)"/><path class="cls-2" d="M1152.74,190l-23.15,26.2,33.23.51L1159.36,192A3.8,3.8,0,0,0,1152.74,190Z" transform="translate(-25.82 -19.25)"/><path class="cls-2" d="M1197,229.85,1173.89,256l-4.6-32.91,25,.39A3.81,3.81,0,0,1,1197,229.85Z" transform="translate(-25.82 -19.25)"/><circle class="cls-4" cx="1117.74" cy="207.85" r="9.67"/><circle class="cls-5" cx="1117.74" cy="207.85" r="6.45"/><circle class="cls-4" cx="1135.85" cy="223.85" r="9.67"/><circle class="cls-5" cx="1135.85" cy="223.85" r="6.45"/><circle class="cls-8" cx="1116.78" cy="226.35" r="6.45"/><path class="cls-8" d="M1152.81,257.67a5.32,5.32,0,0,0-4.46-1.19A15,15,0,0,1,1130.81,241a5.36,5.36,0,0,0-1.72-4.29h0a5.19,5.19,0,0,0-8.61,3.66,25.36,25.36,0,0,0,29.76,26.3,5.18,5.18,0,0,0,2.57-9Z" transform="translate(-25.82 -19.25)"/><path class="cls-9" d="M1131.06,258.37a22.2,22.2,0,0,1-7.48-17.86,2.07,2.07,0,1,1,4.13.34,18.12,18.12,0,0,0,21.16,18.69,2.07,2.07,0,1,1,.83,4.06A22.22,22.22,0,0,1,1131.06,258.37Z" transform="translate(-25.82 -19.25)"/><path class="cls-8" d="M1169.29,212.64a4.17,4.17,0,0,1-5.89.36,3.74,3.74,0,0,1-.51-.55l-26.22.26a.24.24,0,0,1-.06.11,3.42,3.42,0,1,1-2.74-5.69,5.46,5.46,0,0,1,1.36-3.08,5.88,5.88,0,0,1,1.65-1.28,5,5,0,0,1,1.26-2.81,5.17,5.17,0,0,1,6.21-1.18,5.08,5.08,0,0,1,.94-1.57,5.14,5.14,0,0,1,7.22-.44,4.76,4.76,0,0,1,.87,1,5.95,5.95,0,0,1,9.95,3.65,5.78,5.78,0,0,1,3.62,4.4,3.92,3.92,0,0,1,2,.94A4.17,4.17,0,0,1,1169.29,212.64Z" transform="translate(-25.82 -19.25)"/><path class="cls-8" d="M1178.44,215.38a4,4,0,0,1,1.18,1.85,5.73,5.73,0,0,1,3.54,1.45,5.58,5.58,0,0,1,1.27,1.61,5.94,5.94,0,0,1,4.84,9.42,4.57,4.57,0,0,1,1.09.74,5.13,5.13,0,0,1,.45,7.22,4.8,4.8,0,0,1-1.44,1.12,5.15,5.15,0,0,1-3,7.91,5.76,5.76,0,0,1-1.07,1.8,5.48,5.48,0,0,1-2.89,1.72,3.42,3.42,0,0,1-5.68,2.81,3.43,3.43,0,0,1-.3-4.82.25.25,0,0,1,.1-.08l-3-26a4.07,4.07,0,0,1-.61-.44,4.18,4.18,0,0,1,5.53-6.26Z" transform="translate(-25.82 -19.25)"/></g><g class="cls-1"><path class="cls-2" d="M1344.53,599.49h150.89a2.17,2.17,0,0,1,2.17,2.17v46.49A30.82,30.82,0,0,1,1466.77,679H1315.88a2.17,2.17,0,0,1-2.17-2.17V630.31A30.82,30.82,0,0,1,1344.53,599.49Z" transform="translate(5.03 1323.12) rotate(-51.54)"/><path class="cls-2" d="M1398.57,523.82h20.66a18.5,18.5,0,0,1,18.5,18.5v56.3a0,0,0,0,1,0,0h-57.66a0,0,0,0,1,0,0v-56.3A18.5,18.5,0,0,1,1398.57,523.82Z" transform="translate(67.35 1296.18) rotate(-51.54)"/><path class="cls-3" d="M1384.86,714.26c-8.72,11-22.38,36-46.91,16.47-11-8.73-35.49-58-62.66-33.85" transform="translate(-25.82 -19.25)"/><path class="cls-2" d="M1356.76,556.62l26.47,21L1382,545.52l-23.69,4.59A3.69,3.69,0,0,0,1356.76,556.62Z" transform="translate(-25.82 -19.25)"/><path class="cls-2" d="M1393,511.81l26.47,21L1388,539l-.9-24.12A3.69,3.69,0,0,1,1393,511.81Z" transform="translate(-25.82 -19.25)"/><circle class="cls-4" cx="1367.27" cy="544.34" r="9.35"/><circle class="cls-5" cx="1367.27" cy="544.34" r="6.23"/><circle class="cls-4" cx="1381.81" cy="526.04" r="9.35"/><circle class="cls-5" cx="1381.81" cy="526.04" r="6.23"/><circle class="cls-8" cx="1385.18" cy="544.34" r="6.23"/><path class="cls-8" d="M1422.15,553.1a5.19,5.19,0,0,0-.92,4.38,14.52,14.52,0,0,1-14.08,17.72,5.14,5.14,0,0,0-4.05,1.89h0a5,5,0,0,0,4,8.12A24.52,24.52,0,0,0,1431,555.13a5,5,0,0,0-8.81-2Z" transform="translate(-25.82 -19.25)"/><path class="cls-9" d="M1423.93,574.07a21.45,21.45,0,0,1-16.86,8.14,2,2,0,1,1,.11-4,17.52,17.52,0,0,0,17-21.38,2,2,0,1,1,3.88-1A21.49,21.49,0,0,1,1423.93,574.07Z" transform="translate(-25.82 -19.25)"/><path class="cls-8" d="M1377.83,539.48a4,4,0,0,1,.65,5.66,3.23,3.23,0,0,1-.51.53l1.58,25.31a.22.22,0,0,1,.11,0,3.31,3.31,0,0,1-4.11,5.18,3.36,3.36,0,0,1-1.25-2.25,5.29,5.29,0,0,1-3-1.15,5.47,5.47,0,0,1-1.33-1.53,5,5,0,0,1-4.23-7,4.81,4.81,0,0,1-1.56-.83,5,5,0,0,1-.8-7,4.54,4.54,0,0,1,.92-.89,5.75,5.75,0,0,1,3-9.79,5.61,5.61,0,0,1,.94-1.75,5.46,5.46,0,0,1,3.13-2,3.78,3.78,0,0,1,.81-2A4,4,0,0,1,1377.83,539.48Z" transform="translate(-25.82 -19.25)"/><path class="cls-8" d="M1380,530.51a3.82,3.82,0,0,1,1.73-1.24,5.47,5.47,0,0,1,1.22-3.49,5.25,5.25,0,0,1,1.48-1.31,5.75,5.75,0,0,1,8.86-5.15,4.46,4.46,0,0,1,.66-1.1,5,5,0,0,1,7-.79,4.58,4.58,0,0,1,1.16,1.33,5,5,0,0,1,6.11.07,4.82,4.82,0,0,1,1.67,2.46,5.79,5.79,0,0,1,1.8,1,5.29,5.29,0,0,1,1.81,2.69,3.4,3.4,0,0,1,2.47.71,3.31,3.31,0,1,1-4.12,5.17.22.22,0,0,1-.07-.09l-25,4.19a3.76,3.76,0,0,1-.4.61,4,4,0,0,1-6.32-5Z" transform="translate(-25.82 -19.25)"/></g><g class="cls-1"><path class="cls-2" d="M479.24,664.16h132.1a2.17,2.17,0,0,1,2.17,2.17v38.36a30.82,30.82,0,0,1-30.82,30.82H450.58a2.17,2.17,0,0,1-2.17-2.17V695a30.82,30.82,0,0,1,30.82-30.82Z" transform="translate(-192.78 1214.07) rotate(-90.21)"/><path class="cls-2" d="M482.1,609.75h14.76a18.5,18.5,0,0,1,18.5,18.5V676.9a0,0,0,0,1,0,0H463.6a0,0,0,0,1,0,0V628.25A18.5,18.5,0,0,1,482.1,609.75Z" transform="translate(-177.89 1115.88) rotate(-90.21)"/><path class="cls-3" d="M558.47,764.09c0,12.59,4.47,37.76-23.65,37.86-12.59,0-57.43-20.78-62.91,11.42" transform="translate(-25.82 -19.25)"/><path class="cls-2" d="M450.35,669.35l30.35-.11-18.85-21.85-14,16.51A3.31,3.31,0,0,0,450.35,669.35Z" transform="translate(-25.82 -19.25)"/><path class="cls-2" d="M450.65,617.59l30.35-.11-18.69,22-14.16-16.4A3.31,3.31,0,0,1,450.65,617.59Z" transform="translate(-25.82 -19.25)"/><circle class="cls-4" cx="453.91" cy="634.61" r="8.39"/><circle class="cls-5" cx="453.91" cy="634.61" r="5.6"/><circle class="cls-4" cx="453.83" cy="613.62" r="8.39"/><circle class="cls-5" cx="453.83" cy="613.62" r="5.6"/><circle class="cls-8" cx="466.46" cy="624.56" r="5.6"/><path class="cls-8" d="M494.22,630.21a4.59,4.59,0,0,0,1.81,3.58,13,13,0,0,1,.07,20.32,4.63,4.63,0,0,0-1.78,3.59h0a4.5,4.5,0,0,0,7.34,3.47,22,22,0,0,0-.13-34.48,4.5,4.5,0,0,0-7.31,3.52Z" transform="translate(-25.82 -19.25)"/><path class="cls-9" d="M507.23,643.91A19.29,19.29,0,0,1,500,659.07a1.8,1.8,0,1,1-2.17-2.87,15.73,15.73,0,0,0-.09-24.52,1.8,1.8,0,1,1,2.15-2.88A19.28,19.28,0,0,1,507.23,643.91Z" transform="translate(-25.82 -19.25)"/><path class="cls-8" d="M455.5,645.51a3.63,3.63,0,0,1,3.64,3.61,3.45,3.45,0,0,1-.06.66l15.3,16.85a.2.2,0,0,1,.11,0,3,3,0,0,1,0,5.93,3,3,0,0,1-2.13-.87,4.75,4.75,0,0,1-2.78.89,5,5,0,0,1-1.79-.33,4.37,4.37,0,0,1-2.55.81,4.5,4.5,0,0,1-4.35-3.35,4.23,4.23,0,0,1-1.55.3,4.46,4.46,0,0,1-4.46-4.43,4.24,4.24,0,0,1,.14-1.14,5.16,5.16,0,0,1-3.38-8.55,5,5,0,0,1,.77-4.89,3.47,3.47,0,0,1-.54-1.83A3.63,3.63,0,0,1,455.5,645.51Z" transform="translate(-25.82 -19.25)"/><path class="cls-8" d="M452,638a3.43,3.43,0,0,1,.52-1.83,5.1,5.1,0,0,1-.8-4.89A5.17,5.17,0,0,1,455,622.7a4.11,4.11,0,0,1-.15-1.13,4.45,4.45,0,0,1,4.43-4.46,4.32,4.32,0,0,1,1.56.29,4.47,4.47,0,0,1,6.87-2.6,5,5,0,0,1,1.79-.34,4.8,4.8,0,0,1,2.78.87,3,3,0,1,1,2.15,5,.23.23,0,0,1-.11,0l-15.18,17a3.41,3.41,0,0,1,.07.65,3.63,3.63,0,1,1-7.25,0Z" transform="translate(-25.82 -19.25)"/></g><g class="cls-1"><path class="cls-2" d="M1697.3,639.56h114.29a2.17,2.17,0,0,1,2.17,2.17V672.4a30.82,30.82,0,0,1-30.82,30.82H1668.64a2.17,2.17,0,0,1-2.17-2.17V670.38a30.82,30.82,0,0,1,30.82-30.82Z" transform="translate(3494.24 94.86) rotate(141.52)"/><path class="cls-2" d="M1715.42,701.71h16.09a15,15,0,0,1,15,15v44.86a0,0,0,0,1,0,0h-46.18a0,0,0,0,1,0,0V716.76a15,15,0,0,1,15-15Z" transform="translate(3502.05 212.69) rotate(141.52)"/><path class="cls-3" d="M1769.91,616.61c8.8-7,24-24,39.59-4.36,7,8.79,17.19,51.71,42.76,37.75" transform="translate(-25.82 -19.25)"/><path class="cls-2" d="M1763.31,744.7l-16.85-21.2-4.88,25.28,19.32.7A2.94,2.94,0,0,0,1763.31,744.7Z" transform="translate(-25.82 -19.25)"/><path class="cls-2" d="M1726.89,773.09,1710,751.9l25.73.94-3.67,19A3,3,0,0,1,1726.89,773.09Z" transform="translate(-25.82 -19.25)"/><circle class="cls-4" cx="1710.4" cy="713.44" r="7.49"/><circle class="cls-5" cx="1710.4" cy="713.44" r="4.99"/><circle class="cls-4" cx="1695.75" cy="725.09" r="7.49"/><circle class="cls-5" cx="1695.75" cy="725.09" r="4.99"/><circle class="cls-8" cx="1696.43" cy="710.2" r="4.99"/><path class="cls-8" d="M1711.66,735.6a4.13,4.13,0,0,0,1.5-3.24,11.63,11.63,0,0,1,14.19-11.28,4.18,4.18,0,0,0,3.51-.74h0a4,4,0,0,0-1.63-7.06,19.63,19.63,0,0,0-24.08,19.15,4,4,0,0,0,6.51,3.17Z" transform="translate(-25.82 -19.25)"/><path class="cls-9" d="M1714.06,718.92a17.19,17.19,0,0,1,14.63-3.29,1.56,1.56,0,0,1,1.23,1.23,1.59,1.59,0,0,1-2,1.87,14,14,0,0,0-17.12,13.61,1.61,1.61,0,1,1-3.21.09A17.2,17.2,0,0,1,1714.06,718.92Z" transform="translate(-25.82 -19.25)"/><path class="cls-8" d="M1743.77,754.26a3.23,3.23,0,0,1,.52-4.54,2.94,2.94,0,0,1,.49-.32l3.35-20a.24.24,0,0,1-.08-.06,2.65,2.65,0,1,1,4.71-1.32,4.21,4.21,0,0,1,2.16,1.45,4.6,4.6,0,0,1,.76,1.43,4,4,0,0,1,2,6.24,3.74,3.74,0,0,1,1.07.92,4,4,0,0,1-.64,5.57,3.18,3.18,0,0,1-.87.53,4.61,4.61,0,0,1-4.13,7.1,4.35,4.35,0,0,1-1,1.19,4.4,4.4,0,0,1-2.8,1,3.06,3.06,0,0,1-1,1.39A3.23,3.23,0,0,1,1743.77,754.26Z" transform="translate(-25.82 -19.25)"/><path class="cls-8" d="M1740.44,760.86a2.93,2.93,0,0,1-1.57.65,4.34,4.34,0,0,1-1.58,2.51,4.42,4.42,0,0,1-1.4.75,4.6,4.6,0,0,1-7.84,2.42,3.5,3.5,0,0,1-.71.73,4,4,0,0,1-5.57-.63,3.68,3.68,0,0,1-.66-1.25,4,4,0,0,1-4.76-1.16,4,4,0,0,1-.86-2.23,4.39,4.39,0,0,1-1.23-1.06,4.27,4.27,0,0,1-.92-2.43,2.65,2.65,0,1,1,2.34-4.29.14.14,0,0,1,0,.08l20.27,1.26a2.67,2.67,0,0,1,.42-.4,3.23,3.23,0,1,1,4,5.05Z" transform="translate(-25.82 -19.25)"/></g><g class="cls-1"><path class="cls-2" d="M411.34,143.18h110a2.17,2.17,0,0,1,2.17,2.17v28.81A30.82,30.82,0,0,1,492.69,205h-110a2.17,2.17,0,0,1-2.17-2.17V174a30.82,30.82,0,0,1,30.82-30.82Z" transform="translate(848.26 -82.82) rotate(129.55)"/><path class="cls-2" d="M444.4,205.6h7.84a18.5,18.5,0,0,1,18.5,18.5v39.66a0,0,0,0,1,0,0H425.9a0,0,0,0,1,0,0V224.1A18.5,18.5,0,0,1,444.4,205.6Z" transform="translate(888.94 19.23) rotate(129.55)"/><path class="cls-3" d="M469.29,116.06c6.95-8.41,17.94-27.62,36.72-12.11,8.41,6.94,26.73,45.65,48.21,27.25" transform="translate(-25.82 -19.25)"/><path class="cls-2" d="M488.8,239,468.53,222.3l.44,25,18.49-3.22A2.87,2.87,0,0,0,488.8,239Z" transform="translate(-25.82 -19.25)"/><path class="cls-2" d="M459.92,273.34,439.65,256.6l24.63-4.29.33,18.77A2.87,2.87,0,0,1,459.92,273.34Z" transform="translate(-25.82 -19.25)"/><circle class="cls-4" cx="434.83" cy="213.83" r="7.27"/><circle class="cls-5" cx="434.83" cy="213.83" r="4.85"/><circle class="cls-4" cx="423.25" cy="227.85" r="7.27"/><circle class="cls-5" cx="423.25" cy="227.85" r="4.85"/><circle class="cls-8" cx="420.9" cy="213.57" r="4.85"/><path class="cls-8" d="M437.9,240.8a4,4,0,0,0,.78-3.39,11.29,11.29,0,0,1,11.21-13.57,4,4,0,0,0,3.18-1.41h0a3.9,3.9,0,0,0-3-6.37,19.07,19.07,0,0,0-19,23,3.9,3.9,0,0,0,6.82,1.71Z" transform="translate(-25.82 -19.25)"/><path class="cls-9" d="M436.83,224.47a16.68,16.68,0,0,1,13.23-6.08,1.56,1.56,0,1,1-.15,3.11,13.63,13.63,0,0,0-13.52,16.38,1.54,1.54,0,0,1-1.85,2,1.57,1.57,0,0,1-1.18-1.22A16.69,16.69,0,0,1,436.83,224.47Z" transform="translate(-25.82 -19.25)"/><path class="cls-8" d="M472.16,252.05a3.13,3.13,0,0,1-.42-4.42,3.78,3.78,0,0,1,.4-.4l-.85-19.7-.09,0a2.57,2.57,0,1,1,4.21-2.2,4.11,4.11,0,0,1,2.35.94,4.33,4.33,0,0,1,1,1.22,3.72,3.72,0,0,1,2.14.87,3.89,3.89,0,0,1,1,4.64,3.82,3.82,0,0,1,1.72,6.08,3.34,3.34,0,0,1-.73.68,4.48,4.48,0,0,1-2.49,7.57,4.34,4.34,0,0,1-.75,1.34,4.29,4.29,0,0,1-2.47,1.49,2.84,2.84,0,0,1-.66,1.51A3.12,3.12,0,0,1,472.16,252.05Z" transform="translate(-25.82 -19.25)"/><path class="cls-8" d="M470.33,259a3,3,0,0,1-1.37.94,4.25,4.25,0,0,1-1,2.7,4.45,4.45,0,0,1-1.18,1,4.44,4.44,0,0,1-1,3,4.5,4.5,0,0,1-5.95.88,3.8,3.8,0,0,1-.53.84,3.86,3.86,0,0,1-5.42.51,3.82,3.82,0,0,1-.88-1.05,3.89,3.89,0,0,1-4.75-.15,3.82,3.82,0,0,1-1.26-1.93,4.5,4.5,0,0,1-1.38-.77,4.1,4.1,0,0,1-1.37-2.12,2.64,2.64,0,0,1-1.91-.58,2.57,2.57,0,0,1,3.27-4,.13.13,0,0,1,.06.07l19.51-2.88a2.79,2.79,0,0,1,.32-.47,3.14,3.14,0,0,1,4.84,4Z" transform="translate(-25.82 -19.25)"/></g><g class="cls-1"><path class="cls-2" d="M1666,125.13h80.54a2.17,2.17,0,0,1,2.17,2.17v16.08a30.82,30.82,0,0,1-30.82,30.82h-80.54a2.17,2.17,0,0,1-2.17-2.17V156A30.82,30.82,0,0,1,1666,125.13Z" transform="translate(1173.47 1755.98) rotate(-78.19)"/><path class="cls-2" d="M1672.16,82.63h0a17.8,17.8,0,0,1,17.8,17.8v28.38a0,0,0,0,1,0,0h-35.6a0,0,0,0,1,0,0V100.43A17.8,17.8,0,0,1,1672.16,82.63Z" transform="translate(1200.73 1701.63) rotate(-78.19)"/><path class="cls-3" d="M1701.28,196.82c-1.77,8.48-2.4,26-21.33,22.09-8.47-1.78-35.66-22.2-44-1.33" transform="translate(-25.82 -19.25)"/><path class="cls-2" d="M1642.11,117.62l20.43,4.27L1653,104.5l-11.8,9.09A2.28,2.28,0,0,0,1642.11,117.62Z" transform="translate(-25.82 -19.25)"/><path class="cls-2" d="M1649.72,82.84l20.43,4.27-15.72,12.12-7.17-13.06A2.28,2.28,0,0,1,1649.72,82.84Z" transform="translate(-25.82 -19.25)"/><circle class="cls-4" cx="1638.27" cy="92.16" r="5.77"/><circle class="cls-5" cx="1638.27" cy="92.16" r="3.85"/><circle class="cls-4" cx="1641.22" cy="78.03" r="5.77"/><circle class="cls-5" cx="1641.22" cy="78.03" r="3.85"/><circle class="cls-8" cx="1648.15" cy="87.19" r="3.85"/><path class="cls-8" d="M1677.22,97.57a3.17,3.17,0,0,0,.71,2.67,9,9,0,0,1-2.86,13.68,3.18,3.18,0,0,0-1.72,2.16h0a3.1,3.1,0,0,0,4.44,3.38,15.15,15.15,0,0,0,4.86-23.21,3.1,3.1,0,0,0-5.43,1.32Z" transform="translate(-25.82 -19.25)"/><path class="cls-9" d="M1684,108.65a13.24,13.24,0,0,1-7,9.16,1.24,1.24,0,1,1-1-2.24,10.82,10.82,0,0,0,3.45-16.51,1.24,1.24,0,1,1,1.86-1.63A13.26,13.26,0,0,1,1684,108.65Z" transform="translate(-25.82 -19.25)"/><path class="cls-8" d="M1649,102.33a2.49,2.49,0,0,1,1.93,2.94,2.41,2.41,0,0,1-.14.43l7.89,13.53s0,0,.07,0a2,2,0,1,1-2.14,3.1,3.33,3.33,0,0,1-2,.21,3.43,3.43,0,0,1-1.16-.48,3.06,3.06,0,0,1-1.83.18,3.09,3.09,0,0,1-2.44-2.88,2.86,2.86,0,0,1-1.09,0,3.07,3.07,0,0,1-2.37-3.62,2.81,2.81,0,0,1,.26-.74,3.56,3.56,0,0,1-1-6.24,3.49,3.49,0,0,1,1.22-3.18,2.31,2.31,0,0,1-.1-1.31A2.48,2.48,0,0,1,1649,102.33Z" transform="translate(-25.82 -19.25)"/><path class="cls-8" d="M1647.71,96.77a2.41,2.41,0,0,1,.61-1.16,3.51,3.51,0,0,1,.16-3.4,3.55,3.55,0,0,1,3.46-5.29,3,3,0,0,1,.06-.79,3.08,3.08,0,0,1,3.62-2.37,3.13,3.13,0,0,1,1,.42,3.06,3.06,0,0,1,5-.76,3.57,3.57,0,0,1,1.26,0,3.26,3.26,0,0,1,1.74,1,2.07,2.07,0,0,1,1.56-.29,2,2,0,1,1-.84,4,.09.09,0,0,1-.06,0l-12.64,9.24a3.64,3.64,0,0,1-.05.45,2.49,2.49,0,1,1-4.88-1Z" transform="translate(-25.82 -19.25)"/></g><g class="cls-1"><path class="cls-2" d="M693.42,369.44H852.86a2.17,2.17,0,0,1,2.17,2.17v50.18a30.82,30.82,0,0,1-30.82,30.82H664.77a2.17,2.17,0,0,1-2.17-2.17V400.26A30.82,30.82,0,0,1,693.42,369.44Z" transform="translate(856.9 -462.26) rotate(69.81)"/><path class="cls-2" d="M815.09,417.27h23.34a18.5,18.5,0,0,1,18.5,18.5v59.77a0,0,0,0,1,0,0H796.59a0,0,0,0,1,0,0V435.77a18.5,18.5,0,0,1,18.5-18.5Z" transform="matrix(0.35, 0.94, -0.94, 0.35, 943.99, -496.31)"/><path class="cls-3" d="M703.08,351.6C698,337.82,683.14,312,713.91,300.7c13.77-5.06,71.19-.11,64.37-37.56" transform="translate(-25.82 -19.25)"/><path class="cls-2" d="M859.27,412.32l-33.21,12.2L855.41,441l8.8-23.67A3.85,3.85,0,0,0,859.27,412.32Z" transform="translate(-25.82 -19.25)"/><path class="cls-2" d="M879.56,469.14l-33.21,12.21,11.72-31.53,22,12.34A3.85,3.85,0,0,1,879.56,469.14Z" transform="translate(-25.82 -19.25)"/><circle class="cls-4" cx="807.43" cy="421.75" r="9.78"/><circle class="cls-5" cx="807.43" cy="421.75" r="6.52"/><circle class="cls-4" cx="815.87" cy="444.71" r="9.78"/><circle class="cls-5" cx="815.87" cy="444.71" r="6.52"/><path class="cls-6" d="M818.13,461.29l-1.11-3a1.68,1.68,0,0,1,1.62-2.26l4.31.12a1.68,1.68,0,0,1,1.07,2.93l-3.2,2.88A1.68,1.68,0,0,1,818.13,461.29Z" transform="translate(-25.82 -19.25)"/><path class="cls-7" d="M817.63,459.94c-3.06,1.13-8,2.43-8.34,5.67-.4,3.63,4.75,3.47,6.28,2.91" transform="translate(-25.82 -19.25)"/><path class="cls-7" d="M817.6,459.85c-3.06,1.13-7.65,3.32-10,1.08-2.66-2.5,1.37-5.71,2.9-6.28" transform="translate(-25.82 -19.25)"/><circle class="cls-10" cx="735.69" cy="387.31" r="22.83"/><polygon class="cls-11" points="770.52 393.24 745.27 390.29 745.93 394.46 728.7 390.08 729.58 395.45 700.87 381.39 723.12 386.19 722.45 382.02 739.68 386.39 738.8 381.03 770.52 393.24"/><polyline class="cls-12" points="770.52 393.24 738.8 381.03 739.68 386.39 722.45 382.02 723.12 386.19 700.87 381.39"/><polyline class="cls-12" points="700.87 381.39 729.58 395.45 728.7 390.08 745.93 394.46 745.27 390.29 770.52 393.24"/><polygon class="cls-11" points="758.38 360.24 741.05 378.84 738.87 375.25 728.57 389.73 725.77 385.08 713 414.4 726.85 396.33 729.03 399.92 739.33 385.43 742.13 390.08 758.38 360.24"/><polyline class="cls-12" points="758.38 360.24 742.13 390.08 739.33 385.43 729.03 399.92 726.85 396.33 713 414.4"/><polyline class="cls-12" points="713 414.4 725.77 385.08 728.57 389.73 738.87 375.25 741.05 378.84 758.38 360.24"/></g><g class="cls-1"><path class="cls-2" d="M1040.76,867.07h91.91a2.17,2.17,0,0,1,2.17,2.17v21A30.82,30.82,0,0,1,1104,921.05h-91.91a2.17,2.17,0,0,1-2.17-2.17v-21a30.82,30.82,0,0,1,30.82-30.82Z" transform="translate(713.24 -481.01) rotate(36.37)"/><path class="cls-2" d="M1124.34,868.94h2.16a18.5,18.5,0,0,1,18.5,18.5v32.31a0,0,0,0,1,0,0h-39.16a0,0,0,0,1,0,0V887.44a18.5,18.5,0,0,1,18.5-18.5Z" transform="translate(723.74 -512.4) rotate(36.37)"/><path class="cls-3" d="M1020.94,881.81c-7.67-5.65-25-14.31-12.34-31.44,5.65-7.67,38.52-25.53,21.43-43.37" transform="translate(-25.82 -19.25)"/><path class="cls-2" d="M1127.26,858.83l-13.62,18.49,21.77-1.6-3.7-16A2.5,2.5,0,0,0,1127.26,858.83Z" transform="translate(-25.82 -19.25)"/><path class="cls-2" d="M1158.57,882.35,1145,900.84,1140,879.57l16.35-1.2A2.5,2.5,0,0,1,1158.57,882.35Z" transform="translate(-25.82 -19.25)"/><circle class="cls-4" cx="1097.6" cy="864.42" r="6.35"/><circle class="cls-5" cx="1097.6" cy="864.42" r="4.23"/><circle class="cls-4" cx="1110.39" cy="873.83" r="6.35"/><circle class="cls-5" cx="1110.39" cy="873.83" r="4.23"/><path class="cls-6" d="M1122.49,900.07l-1.67-1.23a1.09,1.09,0,0,1,.07-1.8l2.38-1.48a1.08,1.08,0,0,1,1.62,1.2l-.7,2.71A1.09,1.09,0,0,1,1122.49,900.07Z" transform="translate(-25.82 -19.25)"/><path class="cls-7" d="M1121.74,899.51c-1.25,1.71-3.45,4.17-2.49,6.06,1.08,2.11,3.82.18,4.44-.67" transform="translate(-25.82 -19.25)"/><path class="cls-7" d="M1121.69,899.48c-1.25,1.7-3,4.53-5,4.17-2.33-.4-1.3-3.59-.68-4.44" transform="translate(-25.82 -19.25)"/><circle class="cls-10" cx="1046.43" cy="871.43" r="14.82"/><polygon class="cls-11" points="1067.41 862.18 1052.68 869.62 1054.53 871.64 1043.64 875.43 1046.03 878.02 1025.45 880.68 1039.22 875.32 1037.37 873.3 1048.26 869.5 1045.87 866.91 1067.41 862.18"/><polyline class="cls-12" points="1067.41 862.18 1045.87 866.91 1048.26 869.5 1037.37 873.3 1039.22 875.32 1025.45 880.68"/><polyline class="cls-12" points="1025.45 880.68 1046.03 878.02 1043.64 875.43 1054.53 871.64 1052.68 869.62 1067.41 862.18"/><polygon class="cls-11" points="1049.04 848.65 1046.3 864.92 1043.83 863.76 1043.44 875.29 1040.26 873.77 1043.83 894.21 1044.86 879.48 1047.34 880.64 1047.73 869.11 1050.91 870.63 1049.04 848.65"/><polyline class="cls-12" points="1049.04 848.65 1050.91 870.63 1047.73 869.11 1047.34 880.64 1044.86 879.48 1043.83 894.21"/><polyline class="cls-12" points="1043.83 894.21 1040.26 873.77 1043.44 875.29 1043.83 863.76 1046.3 864.92 1049.04 848.65"/></g><g class="cls-1"><path class="cls-2" d="M184.85,882.22H344.3a2.17,2.17,0,0,1,2.17,2.17v50.18a30.82,30.82,0,0,1-30.82,30.82H156.2a2.17,2.17,0,0,1-2.17-2.17V913a30.82,30.82,0,0,1,30.82-30.82Z" transform="translate(-727.49 805.11) rotate(-68.88)"/><path class="cls-2" d="M217.5,805.73h23.34a18.5,18.5,0,0,1,18.5,18.5V884a0,0,0,0,1,0,0H199a0,0,0,0,1,0,0V824.23A18.5,18.5,0,0,1,217.5,805.73Z" transform="translate(-667.34 734.95) rotate(-68.88)"/><path class="cls-3" d="M252.88,1005.24c-5.29,13.69-11.15,42.9-41.73,31.08-13.69-5.28-53.55-46.91-73.15-14.27" transform="translate(-25.82 -19.25)"/><path class="cls-2" d="M175.64,856.53l33,12.75-11.21-31.72-22.23,12A3.85,3.85,0,0,0,175.64,856.53Z" transform="translate(-25.82 -19.25)"/><path class="cls-2" d="M197.92,800.45l33,12.75L201.3,829.14l-8.41-23.81A3.85,3.85,0,0,1,197.92,800.45Z" transform="translate(-25.82 -19.25)"/><circle class="cls-4" cx="188.3" cy="832.91" r="9.78"/><circle class="cls-5" cx="188.3" cy="832.91" r="6.52"/><circle class="cls-4" cx="197.11" cy="810.1" r="9.78"/><circle class="cls-5" cx="197.11" cy="810.1" r="6.52"/><path class="cls-6" d="M238.88,846.9l-1.16,3a1.67,1.67,0,0,1-2.7.63l-3.16-2.94a1.67,1.67,0,0,1,1.12-2.9l4.31,0A1.68,1.68,0,0,1,238.88,846.9Z" transform="translate(-25.82 -19.25)"/><path class="cls-7" d="M238.36,848.24c3,1.17,7.59,3.44,10,1.24,2.69-2.45-1.28-5.74-2.8-6.32" transform="translate(-25.82 -19.25)"/><path class="cls-7" d="M238.32,848.33c3.05,1.17,7.94,2.56,8.25,5.8.35,3.63-4.81,3.39-6.33,2.81" transform="translate(-25.82 -19.25)"/><circle class="cls-10" cx="219.45" cy="906.14" r="22.83"/><polygon class="cls-11" points="197.2 878.7 214.22 897.58 216.48 894.01 226.53 908.66 229.41 904.06 241.7 933.58 228.15 915.28 225.9 918.86 215.84 904.2 212.96 908.81 197.2 878.7"/><polyline class="cls-12" points="197.2 878.7 212.96 908.81 215.84 904.2 225.9 918.86 228.15 915.28 241.7 933.58"/><polyline class="cls-12" points="241.7 933.58 229.41 904.06 226.53 908.66 216.48 894.01 214.22 897.58 197.2 878.7"/><polygon class="cls-11" points="184.53 911.5 209.83 908.96 209.1 913.11 226.4 909.02 225.43 914.36 254.37 900.77 232.05 905.21 232.77 901.06 215.48 905.15 216.44 899.81 184.53 911.5"/><polyline class="cls-12" points="184.53 911.5 216.44 899.81 215.48 905.15 232.77 901.06 232.05 905.21 254.37 900.77"/><polyline class="cls-12" points="254.37 900.77 225.43 914.36 226.4 909.02 209.1 913.11 209.83 908.96 184.53 911.5"/></g><g class="cls-1"><path class="cls-2" d="M1616.94,354.08H1737.7a2.17,2.17,0,0,1,2.17,2.17v33.47a30.82,30.82,0,0,1-30.82,30.82H1588.28a2.17,2.17,0,0,1-2.17-2.17V384.9A30.82,30.82,0,0,1,1616.94,354.08Z" transform="translate(2974.75 -693.28) rotate(128.46)"/><path class="cls-2" d="M1654.67,421.26h11.21a18.5,18.5,0,0,1,18.5,18.5v44a0,0,0,0,1,0,0h-48.21a0,0,0,0,1,0,0v-44a18.5,18.5,0,0,1,18.5-18.5Z" transform="translate(3021.41 -585.35) rotate(128.46)"/><path class="cls-3" d="M1680.38,324.57c7.29-9.19,18.71-30.06,39.22-13.78,9.18,7.3,29.68,48.54,52.4,28.31" transform="translate(-25.82 -19.25)"/><path class="cls-2" d="M1703.88,456.38l-22.14-17.58,1,26.86,19.82-3.84A3.08,3.08,0,0,0,1703.88,456.38Z" transform="translate(-25.82 -19.25)"/><path class="cls-2" d="M1673.54,493.85l-22.14-17.58,26.39-5.11.74,20.17A3.07,3.07,0,0,1,1673.54,493.85Z" transform="translate(-25.82 -19.25)"/><circle class="cls-4" cx="1647.67" cy="431.31" r="7.82"/><circle class="cls-5" cx="1647.67" cy="431.31" r="5.21"/><circle class="cls-4" cx="1635.52" cy="446.61" r="7.82"/><circle class="cls-5" cx="1635.52" cy="446.61" r="5.21"/><path class="cls-6" d="M1653.35,448.67l1.6-2a1.34,1.34,0,0,1,2.21.17l1.71,3a1.34,1.34,0,0,1-1.55,1.95l-3.3-1A1.35,1.35,0,0,1,1653.35,448.67Z" transform="translate(-25.82 -19.25)"/><path class="cls-7" d="M1654.07,447.77c-2-1.62-5-4.43-7.34-3.33-2.64,1.23-.39,4.68.63,5.5" transform="translate(-25.82 -19.25)"/><path class="cls-7" d="M1654.12,447.72c-2-1.63-5.45-3.85-4.91-6.4.6-2.85,4.47-1.44,5.49-.63" transform="translate(-25.82 -19.25)"/><circle class="cls-10" cx="1641.34" cy="368.04" r="18.24"/><polygon class="cls-11" points="1651.78 394.27 1643.29 375.81 1640.72 378 1636.54 364.43 1633.25 367.26 1630.91 341.82 1636.88 358.99 1639.45 356.81 1643.63 370.38 1646.93 367.55 1651.78 394.27"/><polyline class="cls-12" points="1651.78 394.27 1646.93 367.55 1643.63 370.38 1639.45 356.81 1636.88 358.99 1630.91 341.82"/><polyline class="cls-12" points="1630.91 341.82 1633.25 367.26 1636.54 364.43 1640.72 378 1643.29 375.81 1651.78 394.27"/><polygon class="cls-11" points="1669.26 372.27 1649.36 368.18 1650.9 365.19 1636.73 364.19 1638.74 360.35 1613.43 363.82 1631.51 365.75 1629.97 368.74 1644.14 369.74 1642.13 373.59 1669.26 372.27"/><polyline class="cls-12" points="1669.26 372.27 1642.13 373.59 1644.14 369.74 1629.97 368.74 1631.51 365.75 1613.43 363.82"/><polyline class="cls-12" points="1613.43 363.82 1638.74 360.35 1636.73 364.19 1650.9 365.19 1649.36 368.18 1669.26 372.27"/></g><g class="cls-1"><path class="cls-2" d="M701,28.69H841.64a2.17,2.17,0,0,1,2.17,2.17V72.91A30.82,30.82,0,0,1,813,103.73H672.35a2.17,2.17,0,0,1-2.17-2.17V59.51A30.82,30.82,0,0,1,701,28.69Z" transform="translate(1490.77 26.21) rotate(173.44)"/><path class="cls-2" d="M694,80.83h17.44A18.5,18.5,0,0,1,730,99.33v52.13a0,0,0,0,1,0,0H675.53a0,0,0,0,1,0,0V99.33A18.5,18.5,0,0,1,694,80.83Z" transform="translate(1388.36 131.95) rotate(173.44)"/><path class="cls-3" d="M821,30c13.15-1.51,38.94-9.07,42.32,20.31,1.52,13.15-15,62.45,19.27,64.43" transform="translate(-25.82 -19.25)"/><path class="cls-2" d="M734.51,154l-3.65-31.72-20.64,22.25,18.89,12.75A3.48,3.48,0,0,0,734.51,154Z" transform="translate(-25.82 -19.25)"/><path class="cls-2" d="M680.37,159.74,676.72,128l25.16,17-15.5,16.7A3.48,3.48,0,0,1,680.37,159.74Z" transform="translate(-25.82 -19.25)"/><circle class="cls-4" cx="689.07" cy="105.87" r="8.83"/><circle class="cls-5" cx="689.07" cy="105.87" r="5.89"/><circle class="cls-4" cx="667.15" cy="108.39" r="8.83"/><circle class="cls-5" cx="667.15" cy="108.39" r="5.89"/><path class="cls-6" d="M700.31,107.54l2.87-.33a1.51,1.51,0,0,1,1.63,1.9l-1,3.75a1.51,1.51,0,0,1-2.79.32l-1.85-3.42A1.51,1.51,0,0,1,700.31,107.54Z" transform="translate(-25.82 -19.25)"/><path class="cls-7" d="M701.6,107.39c-.34-2.92-.44-7.51-3.2-8.52-3.1-1.12-4,3.43-3.88,4.89" transform="translate(-25.82 -19.25)"/><path class="cls-7" d="M701.68,107.38c-.33-2.92-1.28-7.41,1.19-9,2.75-1.8,4.72,2.42,4.89,3.88" transform="translate(-25.82 -19.25)"/><circle class="cls-10" cx="734.52" cy="50.28" r="20.6"/><polygon class="cls-11" points="721.92 79.56 729.87 58.05 726.07 57.74 733.57 43.56 728.68 43.19 747.12 21 738.18 39.49 741.98 39.8 734.48 53.98 739.37 54.35 721.92 79.56"/><polyline class="cls-12" points="721.92 79.56 739.37 54.35 734.48 53.98 741.98 39.8 738.18 39.49 747.12 21"/><polyline class="cls-12" points="747.12 21 728.68 43.19 733.57 43.56 726.07 57.74 729.87 58.05 721.92 79.56"/><polygon class="cls-11" points="753.44 75.94 740.81 56.79 744.42 55.63 733.91 43.53 738.58 42.05 715.59 24.63 728.49 40.61 724.88 41.77 735.39 53.87 730.72 55.34 753.44 75.94"/><polyline class="cls-12" points="753.44 75.94 730.72 55.34 735.39 53.87 724.88 41.77 728.49 40.61 715.59 24.63"/><polyline class="cls-12" points="715.59 24.63 738.58 42.05 733.91 43.53 744.42 55.63 740.81 56.79 753.44 75.94"/></g><g class="cls-1"><path class="cls-2" d="M1497.41,854.75h148.17a2.17,2.17,0,0,1,2.17,2.17v45.31A30.82,30.82,0,0,1,1616.93,933H1468.76a2.17,2.17,0,0,1-2.17-2.17V885.57A30.82,30.82,0,0,1,1497.41,854.75Z" transform="translate(54.65 1896.02) rotate(-64.53)"/><path class="cls-2" d="M1533.13,781.44h19.8a18.5,18.5,0,0,1,18.5,18.5v55.19a0,0,0,0,1,0,0h-56.8a0,0,0,0,1,0,0V799.94a18.5,18.5,0,0,1,18.5-18.5Z" transform="translate(114.85 1840.16) rotate(-64.53)"/><path class="cls-3" d="M1553.83,970.53c-5.94,12.47-13.53,39.47-41.39,26.2-12.47-6-46.92-47.86-67.65-18.63" transform="translate(-25.82 -19.25)"/><path class="cls-2" d="M1492,825.41,1522,839.74l-8.26-30.57L1492,818.82A3.63,3.63,0,0,0,1492,825.41Z" transform="translate(-25.82 -19.25)"/><path class="cls-2" d="M1516.86,774.36l30.07,14.33L1518,801.54l-6.2-22.95A3.63,3.63,0,0,1,1516.86,774.36Z" transform="translate(-25.82 -19.25)"/><circle class="cls-4" cx="1502.55" cy="804.82" r="9.21"/><circle class="cls-5" cx="1502.55" cy="804.82" r="6.14"/><circle class="cls-4" cx="1512.46" cy="784.03" r="9.21"/><circle class="cls-5" cx="1512.46" cy="784.03" r="6.14"/><path class="cls-6" d="M1552,820.89l-1.29,2.72a1.58,1.58,0,0,1-2.59.39l-2.75-3a1.57,1.57,0,0,1,1.26-2.64l4.05.26A1.57,1.57,0,0,1,1552,820.89Z" transform="translate(-25.82 -19.25)"/><path class="cls-7" d="M1551.41,822.11c2.77,1.32,6.88,3.77,9.31,1.88,2.7-2.11-.8-5.48-2.18-6.14" transform="translate(-25.82 -19.25)"/><path class="cls-7" d="M1551.37,822.19c2.77,1.32,7.27,3,7.33,6,.06,3.43-4.76,2.84-6.14,2.18" transform="translate(-25.82 -19.25)"/><circle class="cls-10" cx="1526.57" cy="875.77" r="21.49"/><polygon class="cls-11" points="1507.64 848.43 1522.27 867.37 1524.64 864.18 1533.04 878.65 1536.07 874.54 1545.49 903.12 1534.08 884.99 1531.71 888.17 1523.32 873.7 1520.29 877.82 1507.64 848.43"/><polyline class="cls-12" points="1507.64 848.43 1520.29 877.82 1523.32 873.7 1531.71 888.17 1534.08 884.99 1545.49 903.12"/><polyline class="cls-12" points="1545.49 903.12 1536.07 874.54 1533.04 878.65 1524.64 864.18 1522.27 867.37 1507.64 848.43"/><polygon class="cls-11" points="1493.4 878.32 1517.33 877.74 1516.35 881.58 1532.88 878.98 1531.6 883.92 1559.73 873.23 1538.46 875.8 1539.44 871.96 1522.91 874.57 1524.19 869.62 1493.4 878.32"/><polyline class="cls-12" points="1493.4 878.32 1524.19 869.62 1522.91 874.57 1539.44 871.96 1538.46 875.8 1559.73 873.23"/><polyline class="cls-12" points="1559.73 873.23 1531.6 883.92 1532.88 878.98 1516.35 881.58 1517.33 877.74 1493.4 878.32"/></g></svg>