<svg id="Layer_1" data-name="Layer 1" xmlns="http://www.w3.org/2000/svg" viewBox="0 0 146 85.58"><defs><style>.cls-1{fill:#444;}.cls-2,.cls-6,.cls-9{fill:none;}.cls-2{stroke:#444;stroke-linecap:round;stroke-linejoin:round;stroke-width:12px;}.cls-3{fill:#ffce00;}.cls-4{fill:#1c1c1c;}.cls-5{fill:#ff625a;}.cls-6{stroke:#282828;stroke-width:2px;}.cls-6,.cls-7,.cls-9{stroke-miterlimit:10;}.cls-7{fill:#fff;}.cls-7,.cls-9{stroke:#000;stroke-width:0.25px;}.cls-8{fill:#fff800;}</style></defs><path class="cls-1" d="M58.82,34.41h85A2.17,2.17,0,0,1,146,36.58v18a30.82,30.82,0,0,1-30.82,30.82h-85A2.17,2.17,0,0,1,28,83.24v-18A30.82,30.82,0,0,1,58.82,34.41Z"/><path class="cls-1" d="M127.5,6.41h0A18.5,18.5,0,0,1,146,24.91v29.5a0,0,0,0,1,0,0H109a0,0,0,0,1,0,0V24.91A18.5,18.5,0,0,1,127.5,6.41Z"/><path class="cls-2" d="M85,159c-9,0-27,3.1-27-17,0-9,15-41-8-45" transform="translate(-44 -79.59)"/><path class="cls-1" d="M153,82v21.69l15.67-13.41L156.9,80.16A2.37,2.37,0,0,0,153,82Z" transform="translate(-44 -79.59)"/><path class="cls-1" d="M190,82.31V104L174.33,90.58,186.1,80.51A2.37,2.37,0,0,1,190,82.31Z" transform="translate(-44 -79.59)"/><circle class="cls-3" cx="120" cy="23.41" r="6"/><circle class="cls-4" cx="120" cy="23.41" r="4"/><circle class="cls-3" cx="135" cy="23.41" r="6"/><circle class="cls-4" cx="135" cy="23.41" r="4"/><path class="cls-5" d="M172.48,116h-2a1,1,0,0,1-1-1.41l1-2.45a1,1,0,0,1,1.9,0l1,2.45A1,1,0,0,1,172.48,116Z" transform="translate(-44 -79.59)"/><path class="cls-6" d="M171.6,116c0,2-.29,5.1,1.5,6,2,1,3-2,3-3" transform="translate(-44 -79.59)"/><path class="cls-6" d="M171.54,116c0,2,.29,5.1-1.5,6-2,1-3-2-3-3" transform="translate(-44 -79.59)"/><circle class="cls-7" cx="85" cy="57.41" r="14"/><polygon class="cls-8" points="95.78 38.62 88.74 52.53 91.28 53.03 85.11 62.02 88.39 62.65 74.22 76.2 81.69 64.41 79.15 63.91 85.31 54.92 82.04 54.29 95.78 38.62"/><polyline class="cls-9" points="95.78 38.62 82.04 54.29 85.31 54.92 79.15 63.91 81.69 64.41 74.22 76.2"/><polyline class="cls-9" points="74.22 76.2 88.39 62.65 85.11 62.02 91.28 53.03 88.74 52.53 95.78 38.62"/><polygon class="cls-8" points="74.22 38.62 81.26 52.53 78.73 53.03 84.89 62.02 81.62 62.65 95.79 76.2 88.32 64.41 90.85 63.91 84.69 54.92 87.96 54.29 74.22 38.62"/><polyline class="cls-9" points="74.22 38.62 87.96 54.29 84.69 54.92 90.85 63.91 88.32 64.41 95.79 76.2"/><polyline class="cls-9" points="95.79 76.2 81.62 62.65 84.89 62.02 78.73 53.03 81.26 52.53 74.22 38.62"/></svg>