<svg id="Layer_1" data-name="Layer 1" xmlns="http://www.w3.org/2000/svg" viewBox="0 0 166.5 244.85"><defs><style>.cls-1{fill:#1f1f1f;}.cls-2{fill:#ffce00;}.cls-3{fill:#1c1c1c;}.cls-4{fill:#ff625a;}.cls-5{fill:none;stroke:#000;stroke-miterlimit:10;stroke-width:2px;}</style></defs><path class="cls-1" d="M18.5,28.85H148a18.5,18.5,0,0,1,18.5,18.5V224.18a20.67,20.67,0,0,1-20.67,20.67H20.67A20.67,20.67,0,0,1,0,224.18V47.35a18.5,18.5,0,0,1,18.5-18.5Z"/><path class="cls-1" d="M44.75,16.24v97.62l70.5-60.37L62.31,8.15A10.64,10.64,0,0,0,44.75,16.24Z" transform="translate(-44.75 -5.57)"/><path class="cls-1" d="M211.25,17.8v97.63l-70.5-60.38L193.69,9.72A10.64,10.64,0,0,1,211.25,17.8Z" transform="translate(-44.75 -5.57)"/><circle class="cls-2" cx="49.5" cy="105.35" r="27"/><circle class="cls-3" cx="49.5" cy="105.35" r="18"/><circle class="cls-2" cx="117" cy="105.35" r="27"/><circle class="cls-3" cx="117" cy="105.35" r="18"/><path class="cls-4" d="M132.42,169.43h-8.84a4.63,4.63,0,0,1-4.29-6.35l4.41-11a4.63,4.63,0,0,1,8.6,0l4.41,11A4.63,4.63,0,0,1,132.42,169.43Z" transform="translate(-44.75 -5.57)"/><path class="cls-5" d="M128.45,169.42c0,9-1.3,23,6.75,27,9,4.5,13.5-9,13.5-13.5" transform="translate(-44.75 -5.57)"/><path class="cls-5" d="M128.19,169.42c0,9,1.3,23-6.75,27-9,4.5-13.5-9-13.5-13.5" transform="translate(-44.75 -5.57)"/></svg>